<svg width="16" height="16" viewBox="0 0 16 16" fill="none" xmlns="http://www.w3.org/2000/svg">
<rect width="16" height="16" rx="8" fill="white"/>
<path d="M2.92892 10.9441C2.85004 10.8828 2.79306 10.8214 2.758 10.7601C2.73171 10.6987 2.73171 10.5804 2.758 10.4051C2.7843 10.1597 2.81936 9.94494 2.86318 9.76087C2.90701 9.56804 2.9596 9.34891 3.02095 9.10349C3.03848 8.99831 3.08669 8.81863 3.16558 8.56445C3.25323 8.31026 3.35841 8.03416 3.48112 7.73615C3.60383 7.43814 3.72654 7.15766 3.84925 6.89471C3.97196 6.62299 4.07714 6.4214 4.16479 6.28992C4.23491 6.23733 4.31818 6.21542 4.41459 6.22419C4.51977 6.23295 4.60742 6.27239 4.67754 6.34251C4.77396 6.4214 4.7871 6.56164 4.71698 6.76323C4.65563 6.95606 4.52415 7.26284 4.32256 7.68356C4.21738 7.92022 4.13849 8.0999 4.0859 8.22261C4.03331 8.33655 4.0114 8.40667 4.02016 8.43297C4.02893 8.4505 4.06837 8.43735 4.13849 8.39353C4.19108 8.29711 4.2875 8.18755 4.42774 8.06484C4.56798 7.93336 4.71698 7.80627 4.87475 7.68356C5.03252 7.56085 5.18153 7.45129 5.32177 7.35487C5.46201 7.25846 5.55843 7.1971 5.61102 7.17081C5.68114 7.12698 5.76002 7.09192 5.84767 7.06563C5.94409 7.03057 6.00982 7.00427 6.04488 6.98674C6.24648 6.89033 6.45246 6.85527 6.66282 6.88156C6.87318 6.90786 7.00465 6.98674 7.05724 7.11822C7.06601 7.18834 7.0923 7.24093 7.13613 7.27599C7.18872 7.31105 7.21501 7.32858 7.21501 7.32858C7.25007 7.32858 7.2676 7.34173 7.2676 7.36802C7.27637 7.39432 7.28075 7.40746 7.28075 7.40746C7.28075 7.46882 7.23254 7.50826 7.13613 7.52579C7.04848 7.53456 6.93453 7.54332 6.79429 7.55209C6.68035 7.56085 6.57955 7.58276 6.4919 7.61782C6.40425 7.65288 6.29907 7.69671 6.17636 7.7493C5.84329 7.94213 5.52337 8.13058 5.21659 8.31464C4.91858 8.49871 4.62933 8.74413 4.34885 9.0509C4.2875 9.12102 4.22614 9.20429 4.16479 9.30071C4.10343 9.39712 4.0377 9.5023 3.96757 9.61625C3.92375 9.66007 3.87992 9.75649 3.8361 9.90549C3.79227 10.0545 3.75283 10.1991 3.71777 10.3394C3.69148 10.4708 3.67833 10.5497 3.67833 10.576C3.67833 10.576 3.66518 10.6198 3.63889 10.7075C3.61259 10.7864 3.56877 10.8653 3.50741 10.9441C3.40223 11.0844 3.31458 11.1545 3.24446 11.1545C3.17434 11.1545 3.06916 11.0844 2.92892 10.9441Z" fill="black"/>
<path d="M9.19176 11.378C9.06905 11.343 8.96826 11.3035 8.88937 11.2597C8.81049 11.2071 8.70531 11.1238 8.57383 11.0099C8.46865 10.8696 8.38538 10.7382 8.32403 10.6155C8.27144 10.4927 8.23638 10.3525 8.21885 10.1947C8.20132 10.0282 8.19255 9.81784 8.19255 9.56366C8.19255 9.45848 8.21008 9.30071 8.24514 9.09035C8.28897 8.87999 8.33718 8.66086 8.38977 8.43297C8.45112 8.19631 8.50371 7.98595 8.54754 7.80189C8.60013 7.61782 8.6308 7.4995 8.63957 7.44691C8.66586 7.33296 8.62204 7.26722 8.50809 7.24969C8.39415 7.23216 8.26706 7.22778 8.12681 7.23655C7.99534 7.23655 7.90769 7.2234 7.86386 7.1971C7.8288 7.18834 7.81127 7.17519 7.81127 7.15766C7.81127 7.13136 7.81127 7.11822 7.81127 7.11822C7.81127 7.08316 7.80689 7.06124 7.79813 7.05248C7.79813 7.03495 7.78498 7.00427 7.75868 6.96045C7.74115 6.92539 7.74992 6.87718 7.78498 6.81582C7.8288 6.7457 7.89892 6.70188 7.99534 6.68435C8.07422 6.66682 8.1794 6.65367 8.31088 6.64491C8.45112 6.62738 8.59136 6.5967 8.7316 6.55287C8.87184 6.50028 8.98579 6.4214 9.07344 6.31622C9.15232 6.12339 9.24435 5.90864 9.34953 5.67199C9.45471 5.43533 9.55551 5.22497 9.65193 5.04091C9.75711 4.84808 9.82723 4.72975 9.86229 4.68592C10.0113 4.60704 10.1209 4.57636 10.191 4.59389C10.2611 4.60266 10.34 4.67716 10.4276 4.8174C10.4715 4.87876 10.5021 4.92696 10.5197 4.96202C10.546 4.99708 10.5503 5.04967 10.5328 5.11979C10.5153 5.18991 10.4671 5.29948 10.3882 5.44848C10.3181 5.59749 10.2085 5.81223 10.0595 6.09271C10.0157 6.18036 9.97623 6.25925 9.94117 6.32937C9.90611 6.39072 9.88858 6.4214 9.88858 6.4214C9.92364 6.43016 9.97623 6.43455 10.0464 6.43455C10.1165 6.43455 10.2041 6.43016 10.3093 6.4214C10.4057 6.40387 10.5284 6.39072 10.6774 6.38196C10.8264 6.36443 10.9448 6.36443 11.0324 6.38196C11.234 6.38196 11.383 6.4214 11.4794 6.50028C11.5758 6.5704 11.6284 6.69311 11.6372 6.86841C11.6547 6.96483 11.6328 7.0218 11.5715 7.03933C11.5189 7.05686 11.3743 7.06563 11.1376 7.06563C11.0587 7.06563 10.936 7.07001 10.7695 7.07877C10.6029 7.08754 10.4276 7.0963 10.2436 7.10507C10.0683 7.11383 9.91488 7.12698 9.7834 7.14451C9.66069 7.15328 9.59934 7.16642 9.59934 7.18395C9.57304 7.20149 9.52922 7.28475 9.46786 7.43376C9.41527 7.58276 9.3583 7.75368 9.29694 7.94651C9.24435 8.13058 9.19615 8.29711 9.15232 8.44612C9.09097 8.74413 9.04276 9.04214 9.0077 9.34015C8.9814 9.63816 8.97702 9.89673 8.99455 10.1159C9.01208 10.335 9.06029 10.4884 9.13917 10.576C9.21806 10.6549 9.37145 10.6724 9.59934 10.6286C9.82723 10.576 10.0113 10.4927 10.1515 10.3788C10.3093 10.2473 10.4364 10.1816 10.5328 10.1816C10.638 10.1816 10.695 10.2298 10.7037 10.3262C10.7213 10.4139 10.6731 10.541 10.5591 10.7075C10.4539 10.8653 10.3225 11.0055 10.1647 11.1282C10.0069 11.2422 9.84038 11.3254 9.66507 11.378C9.49854 11.4218 9.34077 11.4218 9.19176 11.378Z" fill="black"/>
<path d="M12.7292 10.7206C12.5626 10.782 12.4224 10.8127 12.3084 10.8127C12.2033 10.8039 12.0849 10.7513 11.9535 10.6549C11.7869 10.4971 11.73 10.3394 11.7825 10.1816C11.8439 10.0151 11.9885 9.8529 12.2164 9.69513C12.3742 9.59872 12.4881 9.54613 12.5582 9.53736C12.6371 9.5286 12.7555 9.55927 12.9132 9.62939C13.1762 9.79593 13.2901 9.98 13.2551 10.1816C13.2288 10.3832 13.0535 10.5629 12.7292 10.7206Z" fill="black"/>
</svg>
