<svg width="150" height="150" viewBox="0 0 150 150" fill="none" xmlns="http://www.w3.org/2000/svg">
<g clip-path="url(#clip0_1_2)">
<rect width="150" height="150" fill="white"/>
<path d="M19.5 103.65L24.9 102.3V44.7L19.5 43.35V42H43.35C53.55 42 60.9 43.56 65.4 46.68C69.9 49.74 72.15 54.03 72.15 59.55C72.15 63.27 71.16 66.3 69.18 68.64C67.2 70.92 64.65 72.63 61.53 73.77C58.23 75.03 54.72 75.69 51 75.75V76.2C53.22 76.32 55.17 76.65 56.85 77.19C61.05 78.51 63.9 80.88 65.4 84.3L73.5 102.3L78 103.65V105H65.4C60.48 105 56.88 102.45 54.6 97.35L45.6 77.1H39.75V102.3L46.05 103.65V105H19.5V103.65ZM43.35 74.85C47.55 74.85 50.85 73.53 53.25 70.89C55.65 68.25 56.85 64.47 56.85 59.55C56.85 54.63 55.65 50.85 53.25 48.21C50.85 45.57 47.55 44.25 43.35 44.25H39.75V74.85H43.35ZM92.8887 103.65L98.2887 102.3V44.25H87.9387C87.9387 47.91 86.9487 51.42 84.9687 54.78C84.1287 56.16 83.1687 57.3 82.0887 58.2H79.3887V42H132.039V58.2H129.339C128.199 57.3 127.209 56.16 126.369 54.78C124.449 51.54 123.489 48.03 123.489 44.25H113.139V102.3L118.539 103.65V105H92.8887V103.65Z" fill="url(#paint0_radial_1_2)"/>
</g>
<defs>
<radialGradient id="paint0_radial_1_2" cx="0" cy="0" r="1" gradientUnits="userSpaceOnUse" gradientTransform="translate(65.625 47.3604) rotate(53.8356) scale(81.8182 112.305)">
<stop/>
<stop offset="1" stop-color="#616161"/>
</radialGradient>
<clipPath id="clip0_1_2">
<rect width="150" height="150" rx="39" fill="white"/>
</clipPath>
</defs>
</svg>
